# xmcd
# 
# Track frame offsets:
#     150
#     17694
#     32702
#     49844
# 
# Disc length: 1153
# 
# Revision: 0
# Processed by: cddbd v1.5.2PL0 Copyright (c) Steve Scherf et al.
# Submitted via: fre:ac v1.0.17
# 
DISCID=29047f04
DTITLE=Nephridium - The Great Wave (EP 2008)
DYEAR=2008
DGENRE=Deah Metal
TTITLE0=The Sorrow Of Heaven
TTITLE1=Slain God
TTITLE2=Slave Ships
TTITLE3=The Great Wave
EXTD=
EXTT0=
EXTT1=
EXTT2=
EXTT3=
PLAYORDER=
